<svg width="44" height="44" viewBox="0 0 44 44" fill="none" xmlns="http://www.w3.org/2000/svg">
<rect width="44" height="44" rx="8" fill="#7C4964"/>
<path d="M23.9141 11.1602C23.6113 11.3457 23.5625 11.4971 23.5625 12.2344C23.5625 12.8057 23.5771 12.9131 23.6602 13.0547C23.8066 13.2891 24.0264 13.4062 24.3438 13.4062C24.6611 13.4062 24.8809 13.2891 25.0273 13.0547C25.1104 12.9131 25.125 12.8057 25.125 12.2344C25.125 11.6631 25.1104 11.5557 25.0273 11.4141C24.8809 11.1797 24.6611 11.0625 24.3438 11.0625C24.1631 11.0625 24.0215 11.0918 23.9141 11.1602Z" fill="white"/>
<path d="M27.4004 12.4492C27.1611 12.5371 26.5117 13.167 26.3896 13.4306C26.2675 13.6894 26.2724 13.875 26.4092 14.1386C26.4873 14.2998 26.5752 14.3877 26.7363 14.4658C27.1611 14.6806 27.4736 14.5878 27.9717 14.0996C28.499 13.582 28.6015 13.2744 28.3916 12.8398C28.2207 12.4785 27.7861 12.3076 27.4004 12.4492Z" fill="white"/>
<path d="M20.8818 12.4835C20.5205 12.5616 20.2812 12.8692 20.2812 13.2549C20.2861 13.5772 20.3643 13.709 20.7891 14.1192C21.0332 14.3585 21.2139 14.4903 21.3506 14.5294C21.7314 14.6465 22.1367 14.4708 22.293 14.1241C22.4102 13.8653 22.415 13.6797 22.2979 13.4307C22.1807 13.1768 21.5264 12.542 21.3359 12.503C21.082 12.4493 21.0479 12.4493 20.8818 12.4835Z" fill="white"/>
<path d="M23.7188 15.0713C23.3721 15.208 23.0156 15.5645 22.8838 15.9209C22.8008 16.1406 22.7812 16.3066 22.7812 16.751V17.3125H17.8789C13.2012 17.3125 12.9619 17.3174 12.6787 17.4053C11.9609 17.6299 11.3506 18.2451 11.1406 18.9678C11.0723 19.207 11.0625 19.8857 11.0625 25.0469C11.0625 30.7646 11.0625 30.8672 11.1602 31.0234C11.2139 31.1113 11.3262 31.2236 11.4141 31.2773C11.5654 31.3701 11.6631 31.375 12.9277 31.375H14.2852L14.4365 31.6777C14.6172 32.0342 15.042 32.4688 15.3887 32.6543C16.0869 33.0303 16.9756 33.0303 17.6738 32.6543C18.0205 32.4688 18.4453 32.0342 18.626 31.6777L18.7773 31.375H22H25.2227L25.374 31.6777C25.5547 32.0342 25.9795 32.4688 26.3262 32.6543C27.0244 33.0303 27.9131 33.0303 28.6113 32.6543C28.958 32.4688 29.3828 32.0342 29.5635 31.6777L29.7148 31.375H31.0723C32.3369 31.375 32.4346 31.3701 32.5859 31.2773C32.6738 31.2236 32.7861 31.1113 32.8398 31.0234C32.9326 30.8672 32.9375 30.7695 32.9375 28.1865C32.9375 25.6084 32.9326 25.501 32.835 25.208C32.6152 24.5537 32.3369 24.2607 31.248 23.5381L30.5107 23.0547L29.9102 20.9502C29.583 19.7979 29.2559 18.7334 29.1826 18.5869C28.9287 18.0547 28.4111 17.6104 27.8252 17.415C27.5664 17.3271 27.4004 17.3125 26.7119 17.3125H25.9062V16.751C25.9062 16.0479 25.8135 15.7549 25.4668 15.4082C25.0322 14.9785 24.3193 14.8418 23.7188 15.0713ZM27.459 18.9971C27.5469 19.0508 27.6641 19.1631 27.7129 19.2461C27.7666 19.3291 28.0059 20.1201 28.25 21.0039C28.4941 21.8877 28.7041 22.6494 28.7188 22.6934C28.7432 22.7764 28.6162 22.7812 26.5459 22.7812H24.3438V20.8232V18.8652L25.8232 18.8848C27.1953 18.8994 27.3076 18.9043 27.459 18.9971ZM18.4844 20.5986C18.8115 20.8135 18.8506 20.9453 18.8652 21.9121L18.8848 22.7715L19.7441 22.791C20.5107 22.8057 20.6279 22.8154 20.7793 22.9082C21.3018 23.2158 21.3018 23.9092 20.7793 24.2168C20.6279 24.3096 20.5107 24.3193 19.7441 24.334L18.8848 24.3535L18.8652 25.2129C18.8506 25.9795 18.8408 26.0967 18.748 26.248C18.4404 26.7705 17.7471 26.7705 17.4395 26.248C17.3467 26.0967 17.3369 25.9795 17.3223 25.2129L17.3027 24.3535L16.4434 24.334C15.6768 24.3193 15.5596 24.3096 15.4082 24.2168C14.8857 23.9092 14.8857 23.2158 15.4082 22.9082C15.5596 22.8154 15.6768 22.8057 16.4434 22.791L17.3027 22.7715L17.3223 21.9121C17.3369 21.1455 17.3467 21.0283 17.4395 20.877C17.5859 20.6279 17.8203 20.4863 18.0938 20.4863C18.25 20.4863 18.377 20.5205 18.4844 20.5986ZM16.9121 29.959C17.5469 30.3447 17.2734 31.3262 16.5312 31.3262C16.1162 31.3262 15.7988 31.0088 15.7988 30.5938C15.7988 30.1787 16.1162 29.8613 16.5312 29.8613C16.6631 29.8613 16.8145 29.9004 16.9121 29.959ZM27.8496 29.959C28.4844 30.3447 28.2109 31.3262 27.4688 31.3262C27.0537 31.3262 26.7363 31.0088 26.7363 30.5938C26.7363 30.1787 27.0537 29.8613 27.4688 29.8613C27.6006 29.8613 27.752 29.9004 27.8496 29.959Z" fill="white"/>
</svg>
