<svg width="44" height="44" viewBox="0 0 44 44" fill="none" xmlns="http://www.w3.org/2000/svg">
<rect width="44" height="44" rx="8" fill="#7C4964"/>
<path d="M22 11.8438C16.3911 11.8438 11.8438 16.3911 11.8438 22C11.8438 27.6089 16.3911 32.1562 22 32.1562C27.6089 32.1562 32.1562 27.6089 32.1562 22C32.1562 16.3911 27.6089 11.8438 22 11.8438ZM26.6875 23.5625H22C21.7928 23.5625 21.5941 23.4802 21.4476 23.3337C21.3011 23.1872 21.2188 22.9885 21.2188 22.7812V15.75C21.2188 15.5428 21.3011 15.3441 21.4476 15.1976C21.5941 15.0511 21.7928 14.9688 22 14.9688C22.2072 14.9688 22.4059 15.0511 22.5524 15.1976C22.6989 15.3441 22.7812 15.5428 22.7812 15.75V22H26.6875C26.8947 22 27.0934 22.0823 27.2399 22.2288C27.3864 22.3753 27.4688 22.574 27.4688 22.7812C27.4688 22.9885 27.3864 23.1872 27.2399 23.3337C27.0934 23.4802 26.8947 23.5625 26.6875 23.5625Z" fill="white"/>
</svg>
