<svg width="28" height="36" viewBox="0 0 28 36" fill="none" xmlns="http://www.w3.org/2000/svg">
<path d="M9.25001 22.4974H18.75M14 17.7474V27.2474M24.5493 13.6938C25.9156 15.2878 26.6667 17.3181 26.6667 19.4176V31.2057C26.6667 32.9546 25.2489 34.3724 23.5 34.3724H4.50001C2.75111 34.3724 1.33334 32.9546 1.33334 31.2057V19.4176C1.33334 17.3181 2.08439 15.2878 3.45074 13.6938C5.12168 11.7443 7.56103 10.6224 10.1286 10.6224H17.8714C20.439 10.6224 22.8783 11.7443 24.5493 13.6938ZM8.45834 6.66406H19.5417C20.8534 6.66406 21.9167 5.60074 21.9167 4.28906C21.9167 2.97739 20.8534 1.91406 19.5417 1.91406H8.45834C7.14667 1.91406 6.08334 2.97739 6.08334 4.28906C6.08334 5.60074 7.14667 6.66406 8.45834 6.66406Z" stroke="white" stroke-width="2" stroke-linecap="round" stroke-linejoin="round"/>
</svg>
