<svg width="26" height="34" viewBox="0 0 26 34" fill="none" xmlns="http://www.w3.org/2000/svg">
<path d="M7.45835 8.03939H18.5417M9.83335 25.4561H16.1667M13 28.6227V22.2894M17.75 16.231C21.4945 18.0098 24.0834 21.8264 24.0834 26.2477V29.4144C24.0834 31.1633 22.6656 32.5811 20.9167 32.5811H5.08335C3.33445 32.5811 1.91669 31.1633 1.91669 29.4144V26.2477C1.91669 21.8264 4.50552 18.0098 8.25002 16.231M13 17.5394C9.93944 17.5394 7.45835 15.0583 7.45835 11.9977V4.87272C7.45835 3.12382 8.87612 1.70605 10.625 1.70605H15.375C17.1239 1.70605 18.5417 3.12382 18.5417 4.87272V11.9977C18.5417 15.0583 16.0606 17.5394 13 17.5394Z" stroke="white" stroke-width="2" stroke-linecap="round" stroke-linejoin="round"/>
</svg>
