<svg width="22" height="37" viewBox="0 0 22 37" fill="none" xmlns="http://www.w3.org/2000/svg">
<path d="M5.45833 11.8099V17.7474M5.45833 11.8099C5.45833 10.7168 4.57223 9.83073 3.47917 9.83073C2.3861 9.83073 1.5 10.7168 1.5 11.8099V25.6641C1.5 30.9108 5.7533 35.1641 11 35.1641C16.2467 35.1641 20.5 30.9108 20.5 25.6641V14.9766C20.5 13.8835 19.6139 12.9974 18.5208 12.9974C18.0753 12.9974 17.6641 13.1446 17.3333 13.3931M5.45833 11.8099V5.47656C5.45833 4.3835 6.34444 3.4974 7.4375 3.4974C8.53056 3.4974 9.41667 4.3835 9.41667 5.47656M9.41667 5.47656V14.5807M9.41667 5.47656V3.89323C9.41667 2.80017 10.3028 1.91406 11.3958 1.91406C12.4889 1.91406 13.375 2.80017 13.375 3.89323V7.0599M13.375 7.0599V14.5807M13.375 7.0599C13.375 5.96683 14.2611 5.08073 15.3542 5.08073C16.4472 5.08073 17.3333 5.96683 17.3333 7.0599V13.3931M17.3333 13.3931C16.8526 13.7542 16.5417 14.3291 16.5417 14.9766V19.3307C14.4887 20.1413 12.9992 21.9783 12.6577 24.217" stroke="white" stroke-width="2" stroke-linecap="round" stroke-linejoin="round"/>
</svg>
