<svg width="34" height="35" viewBox="0 0 34 35" fill="none" xmlns="http://www.w3.org/2000/svg">
<path d="M1.95831 20.7056H12.25C13.8333 20.7056 15.4166 23.0806 17 23.0806C18.3685 23.0806 20.9198 21.8977 22.0981 24.1326C22.4705 24.839 21.9732 25.6461 21.2356 25.9519C19.527 26.6603 17.624 27.6226 17 27.8306L12.25 26.2472M22.5416 24.6639L29.787 21.7658C30.2268 21.5898 30.7051 21.5325 31.1741 21.5995C32.8315 21.8363 33.2997 24.0072 31.8872 24.9061L19.7844 32.6079C19.0205 33.094 18.085 33.2299 17.2144 32.9811L1.95831 28.6222M17 17.5389C13.9521 16.4659 8.29165 11.8533 8.29165 6.77944C8.29165 3.97723 10.436 1.70557 13.0812 1.70557C14.7011 1.70557 16.1332 2.55747 17 3.86141C17.8668 2.55747 19.2989 1.70557 20.9187 1.70557C23.5639 1.70557 25.7083 3.97723 25.7083 6.77944C25.7083 11.8533 20.0479 16.4659 17 17.5389Z" stroke="white" stroke-width="2" stroke-linecap="round" stroke-linejoin="round"/>
</svg>
