<svg width="26" height="33" viewBox="0 0 26 33" fill="none" xmlns="http://www.w3.org/2000/svg">
<path d="M19.3333 4.87223H20.9167C22.6656 4.87223 24.0833 6.29 24.0833 8.0389V28.6222C24.0833 30.3711 22.6656 31.7889 20.9167 31.7889H5.08332C3.33442 31.7889 1.91666 30.3711 1.91666 28.6222V8.0389C1.91666 6.29 3.33442 4.87223 5.08332 4.87223H6.66666M19.3333 4.87223C19.3333 6.62113 17.9156 8.0389 16.1667 8.0389H9.83332C8.08442 8.0389 6.66666 6.62113 6.66666 4.87223M19.3333 4.87223C19.3333 3.12333 17.9156 1.70557 16.1667 1.70557H9.83332C8.08442 1.70557 6.66666 3.12333 6.66666 4.87223M6.66672 19.1222H9.04172L11.4167 23.0806L14.5834 15.1639L16.9584 19.9139H19.3334" stroke="white" stroke-width="2" stroke-linecap="round" stroke-linejoin="round"/>
</svg>
