<svg width="34" height="34" viewBox="0 0 34 34" fill="none" xmlns="http://www.w3.org/2000/svg">
<path d="M13.8334 4.41578L11.402 1.98438C10.1653 0.747724 8.16032 0.747723 6.92366 1.98438L2.44532 6.46273C1.20866 7.69939 1.20866 9.70441 2.44532 10.9411L4.87652 13.3723M29.1232 19.7056L31.5545 22.1369C32.7912 23.3736 32.7912 25.3786 31.5545 26.6153L27.0762 31.0936C25.8395 32.3303 23.8345 32.3303 22.5979 31.0936L20.1667 28.6625M17 7.58206L25.9567 16.5387M8.04331 16.5387L17 25.4954M2.44538 26.615L6.92372 31.0934C8.16038 32.33 10.1654 32.33 11.4021 31.0934L31.5546 10.9408C32.7913 9.70416 32.7913 7.69914 31.5546 6.46248L27.0763 1.98414C25.8396 0.747476 23.8346 0.747475 22.5979 1.98414L2.44538 22.1367C1.20872 23.3733 1.20872 25.3784 2.44538 26.615Z" stroke="white" stroke-width="2" stroke-linecap="round" stroke-linejoin="round"/>
</svg>
